<?xml version="1.0" encoding="UTF-8" standalone="no"?>
<!-- Created with Inkscape (http://www.inkscape.org/) -->

<svg
   width="1728"
   height="971.99994"
   viewBox="0 0 457.19999 257.17498"
   version="1.1"
   id="svg6123"
   inkscape:version="1.2.2 (732a01da63, 2022-12-09)"
   sodipodi:docname="non_gambling_slots.svg"
   xmlns:inkscape="http://www.inkscape.org/namespaces/inkscape"
   xmlns:sodipodi="http://sodipodi.sourceforge.net/DTD/sodipodi-0.dtd"
   xmlns:xlink="http://www.w3.org/1999/xlink"
   xmlns="http://www.w3.org/2000/svg"
   xmlns:svg="http://www.w3.org/2000/svg">
  <sodipodi:namedview
     id="namedview6125"
     pagecolor="#ffffff"
     bordercolor="#000000"
     borderopacity="0.25"
     inkscape:showpageshadow="false"
     inkscape:pageopacity="0.0"
     inkscape:pagecheckerboard="0"
     inkscape:deskcolor="#4c4c4c"
     inkscape:document-units="mm"
     showgrid="false"
     inkscape:zoom="0.3581229"
     inkscape:cx="2908.2195"
     inkscape:cy="590.57939"
     inkscape:window-width="1920"
     inkscape:window-height="991"
     inkscape:window-x="-9"
     inkscape:window-y="-9"
     inkscape:window-maximized="1"
     inkscape:current-layer="layer1">
    <inkscape:page
       x="5.5555347e-08"
       y="2.1395084e-07"
       width="457.19998"
       height="257.17499"
       id="page2"
       margin="0"
       bleed="0" />
  </sodipodi:namedview>
  <defs
     id="defs6120">
    <linearGradient
       id="linearGradient10"
       inkscape:collect="always">
      <stop
         style="stop-color:#000000;stop-opacity:1;"
         offset="0"
         id="stop10" />
      <stop
         style="stop-color:#000000;stop-opacity:0;"
         offset="0.49807042"
         id="stop12" />
      <stop
         style="stop-color:#000000;stop-opacity:1;"
         offset="1"
         id="stop11" />
    </linearGradient>
    <linearGradient
       inkscape:collect="always"
       xlink:href="#linearGradient10"
       id="linearGradient11"
       x1="1808"
       y1="260.35001"
       x2="1808"
       y2="25.4"
       gradientUnits="userSpaceOnUse" />
    <linearGradient
       inkscape:collect="always"
       xlink:href="#linearGradient10"
       id="linearGradient16"
       gradientUnits="userSpaceOnUse"
       x1="1808"
       y1="260.35001"
       x2="1808"
       y2="25.4" />
    <linearGradient
       inkscape:collect="always"
       xlink:href="#linearGradient10"
       id="linearGradient17"
       gradientUnits="userSpaceOnUse"
       x1="1808"
       y1="260.35001"
       x2="1808"
       y2="25.4" />
    <linearGradient
       inkscape:collect="always"
       xlink:href="#linearGradient10"
       id="linearGradient18"
       gradientUnits="userSpaceOnUse"
       x1="1808"
       y1="260.35001"
       x2="1808"
       y2="25.4" />
  </defs>
  <g
     inkscape:label="Ebene 1"
     inkscape:groupmode="layer"
     id="layer1"
     transform="translate(-1579.3999,-14.2875)">
    <g
       id="g10"
       style="opacity:0.6;fill:url(#linearGradient11);fill-opacity:1;stroke-width:0.955814"
       inkscape:export-filename="..\Desktop\trio_gradient.svg"
       inkscape:export-xdpi="96"
       inkscape:export-ydpi="96"
       transform="matrix(0.99999978,0,0,1.0945946,1.8335061e-4,-13.515203)">
      <path
         id="ellipse6"
         style="opacity:1;fill:url(#linearGradient16);fill-opacity:1;stroke-width:0.0955814"
         d="m 1587.5765,25.4 a 228.60001,445.30844 0 0 0 -8.1763,117.475 228.60001,445.30844 0 0 0 8.1763,117.475 h 133.0451 a 93.133362,341.13681 0 0 1 -5.7547,-117.475 93.133362,341.13681 0 0 1 5.7547,-117.475 z"
         inkscape:export-filename="..\Desktop\trio.svg"
         inkscape:export-xdpi="96"
         inkscape:export-ydpi="96" />
      <path
         id="rect8"
         style="opacity:1;fill:url(#linearGradient17);fill-opacity:1;stroke-width:0.0955814"
         d="m 1744.4522,25.4 a 67.733322,341.13681 0 0 0 -4.1853,117.475 67.733322,341.13681 0 0 0 4.1853,117.475 h 127.0956 a 67.733322,341.13681 0 0 0 4.1858,-117.475 67.733322,341.13681 0 0 0 -4.1558,-117.475 z" />
      <path
         id="path9"
         style="opacity:1;fill:url(#linearGradient18);fill-opacity:1;stroke-width:0.0955814"
         d="m 2028.424,25.4 a 228.60001,445.30844 0 0 1 8.1763,117.475 228.60001,445.30844 0 0 1 -8.1763,117.475 h -133.0451 a 93.133362,341.13681 0 0 0 5.7547,-117.475 93.133362,341.13681 0 0 0 -5.7547,-117.475 z" />
    </g>
  </g>
</svg>
