<?xml version="1.0" encoding="UTF-8" standalone="no"?>
<!-- Created with Inkscape (http://www.inkscape.org/) -->

<svg
   width="1728.1401"
   height="888"
   viewBox="0 0 457.23707 234.95"
   id="svg6123"
   xmlns="http://www.w3.org/2000/svg">
  <g
     id="layer1"
     transform="translate(-543.39991,-25.4)">
    <path
       id="rect6465"
       style="fill:#fff;"
       d="m 557.45383,25.4 a 228.60001,341.13681 0 0 0 -14.05392,117.475 228.60001,341.13681 0 0 0 14.05392,117.475 h 4.28139 117.13135 5.74642 A 93.133362,341.13681 0 0 1 678.86657,142.875 93.133362,341.13681 0 0 1 684.61299,25.4 h -5.74642 -117.13135 z" />
    <path
       id="rect6469"
       style="fill:#fff;"
       d="m 708.44565,25.4 a 67.733322,341.13681 0 0 0 -4.17908,117.475 67.733322,341.13681 0 0 0 4.17908,117.475 H 835.55417 A 67.733322,341.13681 0 0 0 839.73324,142.875 67.733322,341.13681 0 0 0 835.58879,25.4 Z" />
    <path
       id="path6501"
       style="fill:#fff;"
       d="M 986.58305,25.4 A 228.60001,341.13681 0 0 1 1000.637,142.875 228.60001,341.13681 0 0 1 986.58305,260.35 h -4.28139 -117.13135 -5.74642 A 93.133362,341.13681 0 0 0 865.17031,142.875 93.133362,341.13681 0 0 0 859.42389,25.4 h 5.74642 117.13135 z" />
  </g>
</svg>
