<?xml version="1.0" encoding="UTF-8" standalone="no"?>
<!-- Created with Inkscape (http://www.inkscape.org/) -->

<svg
   width="1728"
   height="971.99994"
   viewBox="0 0 457.19999 257.17498"
   version="1.1"
   id="svg6123"
   xmlns="http://www.w3.org/2000/svg"
   xmlns:svg="http://www.w3.org/2000/svg">
  <defs
     id="defs6120" />
  <g
     id="layer1"
     transform="translate(-1579.3999,-14.2875)">
    <g
       id="g10"
       style="opacity:1;fill:#ffffff;fill-opacity:1;stroke-width:0.955814"
       transform="matrix(0.99999978,0,0,1.0945946,1.8335061e-4,-13.515203)">
      <path
         id="ellipse6"
         style="opacity:1;fill:#ffffff;fill-opacity:1;stroke-width:0.0955814"
         d="m 1587.5765,25.4 a 228.60001,445.30844 0 0 0 -8.1763,117.475 228.60001,445.30844 0 0 0 8.1763,117.475 h 133.0451 a 93.133362,341.13681 0 0 1 -5.7547,-117.475 93.133362,341.13681 0 0 1 5.7547,-117.475 z" />
      <path
         id="rect8"
         style="opacity:1;fill:#ffffff;fill-opacity:1;stroke-width:0.0955814"
         d="m 1744.4522,25.4 a 67.733322,341.13681 0 0 0 -4.1853,117.475 67.733322,341.13681 0 0 0 4.1853,117.475 h 127.0956 a 67.733322,341.13681 0 0 0 4.1858,-117.475 67.733322,341.13681 0 0 0 -4.1558,-117.475 z" />
      <path
         id="path9"
         style="opacity:1;fill:#ffffff;fill-opacity:1;stroke-width:0.0955814"
         d="m 2028.424,25.4 a 228.60001,445.30844 0 0 1 8.1763,117.475 228.60001,445.30844 0 0 1 -8.1763,117.475 h -133.0451 a 93.133362,341.13681 0 0 0 5.7547,-117.475 93.133362,341.13681 0 0 0 -5.7547,-117.475 z" />
    </g>
  </g>
</svg>
